<svg width="400" height="300" viewBox="0 0 400 300" fill="none" xmlns="http://www.w3.org/2000/svg">
<rect width="400" height="300" fill="white"/>
<path fill-rule="evenodd" clip-rule="evenodd" d="M200 69L325 118L200 167L75 118L200 69ZM109.1 145C109.034 145.323 109 145.658 109 146V185C109 186.335 109.523 187.548 110.375 188.444C110.663 188.974 111.113 189.423 111.696 189.708L196.632 231.134C197.421 231.519 198.296 231.526 199.052 231.227C199.809 231.526 200.684 231.519 201.472 231.134L286.408 189.708C287.085 189.378 287.581 188.828 287.854 188.185C288.57 187.32 289 186.21 289 185V146C289 145.658 288.966 145.323 288.9 145H283V146V184.695L199.052 225.639L115 184.644V146V145H109.1ZM311 128.5C311 127.672 311.672 127 312.5 127C313.328 127 314 127.672 314 128.5V190.598L318.129 197.75C318.514 198.417 318.033 199.25 317.263 199.25H307.737C306.967 199.25 306.486 198.417 306.871 197.75L311 190.598V128.5Z" fill="#002D37"/>
</svg>
