<svg width="400" height="300" viewBox="0 0 400 300" fill="none" xmlns="http://www.w3.org/2000/svg">
<rect width="400" height="300" fill="white"/>
<path fill-rule="evenodd" clip-rule="evenodd" d="M278 91H122C121.448 91 121 91.4477 121 92V181.803C121 182.355 121.448 182.803 122 182.803H278C278.552 182.803 279 182.355 279 181.803V92C279 91.4477 278.552 91 278 91ZM122 80C115.373 80 110 85.3726 110 92V181.803C110 188.43 115.373 193.803 122 193.803H194.316V209.56H170.167C167.284 209.56 164.947 211.897 164.947 214.78C164.947 217.663 167.284 220 170.167 220H229.251C232.134 220 234.471 217.663 234.471 214.78C234.471 211.897 232.134 209.56 229.251 209.56H205.744V193.803H278C284.627 193.803 290 188.43 290 181.803V92C290 85.3726 284.627 80 278 80H122Z" fill="#002D37"/>
</svg>
