<svg width="400" height="300" viewBox="0 0 400 300" fill="none" xmlns="http://www.w3.org/2000/svg">
<rect width="400" height="300" fill="white"/>
<path fill-rule="evenodd" clip-rule="evenodd" d="M200.094 102.214L152.713 124.689L200.094 147.164L247.475 124.689L200.094 102.214ZM202.665 94.579C201.038 93.807 199.15 93.807 197.522 94.579L145.474 119.268C140.903 121.436 140.903 127.941 145.474 130.11L197.522 154.799C199.15 155.571 201.038 155.571 202.665 154.799L230.366 141.659L247.429 149.752L200.048 172.228L152.667 149.752L169.752 141.648L160.419 137.221L145.429 144.331C140.857 146.5 140.857 153.005 145.429 155.174L160.419 162.284L145.429 169.395C140.857 171.564 140.857 178.069 145.429 180.237L197.477 204.926C199.104 205.698 200.992 205.698 202.619 204.926L254.667 180.237C259.239 178.069 259.239 171.564 254.667 169.395L239.677 162.284L254.667 155.174C259.239 153.005 259.239 146.5 254.667 144.331L239.7 137.232L254.713 130.11C259.285 127.941 259.285 121.436 254.713 119.268L202.665 94.579ZM230.344 166.712L202.619 179.862C200.992 180.634 199.104 180.634 197.477 179.862L169.752 166.712L152.667 174.816L200.048 197.291L247.429 174.816L230.344 166.712Z" fill="#002D37"/>
</svg>
