<svg width="400" height="300" viewBox="0 0 400 300" fill="none" xmlns="http://www.w3.org/2000/svg">
<rect width="400" height="300" fill="white"/>
<path fill-rule="evenodd" clip-rule="evenodd" d="M170 56.8689C170 55.2844 171.284 54 172.869 54H226.706C227.481 54 228.184 54.3074 228.7 54.8068C228.945 55.0433 229.172 55.3001 229.38 55.5692C229.769 56.0724 230 56.7035 230 57.3886V76.0213C230 77.6664 228.666 79 227.021 79C225.376 79 224.043 77.6664 224.043 76.0213V64.7377C224.043 61.9763 221.804 59.7377 219.043 59.7377H180.957C178.196 59.7377 175.957 61.9763 175.957 64.7377V75.6114C175.957 77.2566 174.624 78.5902 172.979 78.5902C171.334 78.5902 170 77.2566 170 75.6115V56.9787C170 56.9602 170 56.9417 170.001 56.9233C170 56.9052 170 56.887 170 56.8689ZM120 88H280C282.209 88 284 89.7909 284 92V111C284 112.516 283.084 114.915 279.214 117.965C275.411 120.962 269.536 123.923 261.742 126.521C246.217 131.696 224.387 135 200 135C175.613 135 153.783 131.696 138.258 126.521C130.464 123.923 124.589 120.962 120.786 117.965C116.916 114.915 116 112.516 116 111V92C116 89.7909 117.791 88 120 88ZM191.133 140.856C156.717 139.734 127.986 132.151 116 121.793V192C116 194.209 117.791 196 120 196H280C282.209 196 284 194.209 284 192V121.793C272.245 131.951 244.384 139.441 210.85 140.784C210.948 141.179 211 141.585 211 142C211 145.866 206.523 149 201 149C195.477 149 191 145.866 191 142C191 141.61 191.045 141.228 191.133 140.856ZM110 111V92C110 86.4771 114.477 82 120 82H280C285.523 82 290 86.4772 290 92V111V192C290 197.523 285.523 202 280 202H120C114.477 202 110 197.523 110 192V111ZM205.079 141.62C205.08 141.62 205.075 141.634 205.056 141.659C205.068 141.632 205.077 141.62 205.079 141.62ZM204.63 141.966C204.647 141.977 204.663 141.989 204.679 142C204.663 142.011 204.647 142.023 204.63 142.034C203.946 142.513 202.681 143 201 143C199.319 143 198.054 142.513 197.37 142.034C197.359 142.027 197.348 142.019 197.337 142.011C197.332 142.008 197.327 142.004 197.321 142C197.337 141.989 197.353 141.977 197.37 141.966C198.054 141.487 199.319 141 201 141C202.681 141 203.946 141.487 204.63 141.966ZM196.921 141.62C196.923 141.62 196.932 141.632 196.944 141.659C196.925 141.634 196.92 141.62 196.921 141.62ZM196.921 142.38C196.92 142.38 196.925 142.366 196.944 142.341C196.932 142.368 196.923 142.38 196.921 142.38ZM205.056 142.341C205.075 142.366 205.08 142.38 205.079 142.38C205.077 142.38 205.068 142.368 205.056 142.341Z" fill="#002D37"/>
</svg>
