<svg width="400" height="300" viewBox="0 0 400 300" fill="none" xmlns="http://www.w3.org/2000/svg">
<rect width="400" height="300" fill="white"/>
<path fill-rule="evenodd" clip-rule="evenodd" d="M80 72C80 65.3726 85.3726 60 92 60H308C314.627 60 320 65.3726 320 72V228C320 234.627 314.627 240 308 240H92C85.3726 240 80 234.627 80 228V72ZM267 76.7442C269.761 76.7442 272 74.4015 272 71.5116C272 68.6218 269.761 66.2791 267 66.2791C264.239 66.2791 262 68.6218 262 71.5116C262 74.4015 264.239 76.7442 267 76.7442ZM288 71.5116C288 74.4015 285.761 76.7442 283 76.7442C280.239 76.7442 278 74.4015 278 71.5116C278 68.6218 280.239 66.2791 283 66.2791C285.761 66.2791 288 68.6218 288 71.5116ZM304 71.5116C304 74.4015 301.761 76.7442 299 76.7442C296.239 76.7442 294 74.4015 294 71.5116C294 68.6218 296.239 66.2791 299 66.2791C301.761 66.2791 304 68.6218 304 71.5116ZM306 83H95V226H306V83Z" fill="#002D37"/>
<path d="M160.297 156.027V148.641L186.007 137.845V145.924L169.033 152.263L169.299 151.872V152.813L169.033 152.405L186.007 158.761V166.822L160.297 156.027ZM209.911 128.932L198.192 172.469H190.788L202.507 128.932H209.911ZM240.402 156.027L214.691 166.822V158.761L231.666 152.405L231.417 152.813V151.872L231.666 152.263L214.691 145.924V137.845L240.402 148.641V156.027Z" fill="#002D37"/>
</svg>
